<svg xmlns="http://www.w3.org/2000/svg" width="11" height="15.403" viewBox="0 0 11 15.403">
  <path id="Pfad_15" data-name="Pfad 15" d="M12.647,2h2.619A.733.733,0,0,1,16,2.733V16.669a.733.733,0,0,1-.733.733H12.647a2.2,2.2,0,1,0-4.4,0H5.733A.733.733,0,0,1,5,16.669v0l.018-7L5,2.735A.733.733,0,0,1,5.732,2H8.246a2.2,2.2,0,1,0,4.4,0ZM5.727,7.134h1.1a.367.367,0,1,0,0-.733h-1.1a.367.367,0,0,0,0,.733ZM15.267,6.4h-1.1a.367.367,0,1,0,0,.733h1.1a.367.367,0,0,0,0-.733ZM8.3,7.134H9.766a.367.367,0,0,0,0-.733H8.3a.367.367,0,1,0,0,.733Zm2.934,0H12.7a.367.367,0,1,0,0-.733H11.233a.367.367,0,0,0,0,.733Z" transform="translate(-5 -2)" fill="#6b6b6b" fill-rule="evenodd"/>
</svg>
