<?xml version="1.0" ?><svg style="enable-background:new 0 0 128 128;" version="1.1" viewBox="0 0 128 128" xml:space="preserve" xmlns="http://www.w3.org/2000/svg" xmlns:xlink="http://www.w3.org/1999/xlink"><style type="text/css">
	.st0{fill:#00B8DF;}
	.st1{fill:#FF9A30;}
	.st2{fill:#FFFFFF;}
	.st3{fill:#61BEE2;}
	.st4{fill:#FD4233;}
	.st5{fill:#FF402F;}
	.st6{fill:#1D409D;}
	.st7{fill:#007732;}
	.st8{fill:#FF5A29;}
</style><g/><g id="Ps"/><g id="Ai"/><g id="Ai_download"/><g id="Image"/><g id="Image_download"/><g id="Video"/><g id="Video_download"/><g id="Ps_download"/><g id="Doc"/><g id="Doc_download"/><g id="Music"><g><g><g><path class="st0" d="M104,126H24c-5.5,0-10-4.5-10-10V12c0-5.5,4.5-10,10-10h40.7c2.7,0,5.2,1,7.1,2.9l39.3,39.3      c1.9,1.9,2.9,4.4,2.9,7.1V116C114,121.5,109.5,126,104,126z M24,6c-3.3,0-6,2.7-6,6v104c0,3.3,2.7,6,6,6h80c3.3,0,6-2.7,6-6      V51.3c0-1.6-0.6-3.1-1.8-4.2L68.9,7.8C67.8,6.6,66.3,6,64.7,6H24z"/></g></g><g><g><path class="st0" d="M57,89h-4V58.5c0-1.8,1.2-3.4,2.9-3.9l21-5.5c1.2-0.3,2.5-0.1,3.5,0.7c1,0.8,1.6,1.9,1.6,3.2v30.4h-4V53      l-21,5.5L57,89z"/></g><g><ellipse class="st0" cx="47.5" cy="89" rx="7.5" ry="5"/><path class="st0" d="M47.5,96c-5.3,0-9.5-3.1-9.5-7s4.2-7,9.5-7s9.5,3.1,9.5,7S52.8,96,47.5,96z M47.5,86c-3.1,0-5.5,1.6-5.5,3      s2.4,3,5.5,3s5.5-1.6,5.5-3S50.6,86,47.5,86z"/></g><g><ellipse class="st0" cx="72.5" cy="83.4" rx="7.5" ry="5.4"/><path class="st0" d="M72.5,90.7c-5.3,0-9.5-3.2-9.5-7.4c0-4.1,4.2-7.4,9.5-7.4s9.5,3.2,9.5,7.4C82,87.5,77.8,90.7,72.5,90.7z       M72.5,80c-2.9,0-5.5,1.6-5.5,3.4c0,1.6,2.3,3.4,5.5,3.4S78,85,78,83.4C78,81.6,75.4,80,72.5,80z"/></g></g></g></g><g id="Music_download"/><g id="Pdf"/><g id="Pdf_download"/><g id="Word"/><g id="Word_download"/><g id="Exel"/><g id="Exel_download"/><g id="Powerpoint"/><g id="Powerpoint_download"/><g id="Zip"/><g id="Zip_download"/></svg>