<svg xmlns="http://www.w3.org/2000/svg" width="13.511" height="15.516" viewBox="0 0 13.511 15.516">
  <path id="Pfad_8" data-name="Pfad 8" d="M18.768,6a1.293,1.293,0,0,0-1.293,1.293v4.939l-.181-.194L10.7,6.6a2.715,2.715,0,0,0-2.857-.336A2.276,2.276,0,0,0,6.55,8.315V19.2a2.276,2.276,0,0,0,1.293,2.056,2.883,2.883,0,0,0,1.177.259A2.663,2.663,0,0,0,10.7,20.92l6.594-5.443.181-.194v4.939a1.293,1.293,0,1,0,2.586,0V7.293A1.293,1.293,0,0,0,18.768,6Z" transform="translate(-6.55 -5.999)" fill="#c7c7c7"/>
</svg>
