<svg xmlns="http://www.w3.org/2000/svg" width="13.511" height="15.516" viewBox="0 0 13.511 15.516">
  <path id="Pfad_8" data-name="Pfad 8" d="M12.218,0a1.293,1.293,0,0,0-1.293,1.293V6.233l-.181-.194L4.15.6A2.715,2.715,0,0,0,1.293.26,2.276,2.276,0,0,0,0,2.316V13.2a2.276,2.276,0,0,0,1.293,2.056,2.883,2.883,0,0,0,1.177.259,2.663,2.663,0,0,0,1.681-.595l6.594-5.443.181-.194v4.939a1.293,1.293,0,1,0,2.586,0V1.294A1.293,1.293,0,0,0,12.218,0Z" transform="translate(13.511 15.516) rotate(180)" fill="#c7c7c7"/>
</svg>
