<svg xmlns="http://www.w3.org/2000/svg" width="13.106" height="13.146" viewBox="0 0 13.106 13.146">
  <path id="Pfad_13" data-name="Pfad 13" d="M3.327,2V5.4a1.972,1.972,0,0,0,0,3.7v6.04H4.642V9.112a1.972,1.972,0,0,0,0-3.707V2Zm.657,5.916a.657.657,0,1,1,.657-.657A.657.657,0,0,1,3.985,7.916ZM7.928,2v8.006a1.972,1.972,0,0,0,0,3.7v1.439H9.243V13.713a1.972,1.972,0,0,0,0-3.7V2Zm.657,10.516a.657.657,0,1,1,.657-.657A.657.657,0,0,1,8.586,12.516ZM13.187,2a1.972,1.972,0,0,0-.657,3.825v9.32h1.315V5.825A1.972,1.972,0,0,0,13.187,2Zm0,2.629a.657.657,0,1,1,.657-.657A.657.657,0,0,1,13.187,4.629Z" transform="translate(-2.037 -2)" fill="#6b6b6b"/>
</svg>
