<svg xmlns="http://www.w3.org/2000/svg" width="21.658" height="17.332" viewBox="0 0 21.658 17.332">
  <g id="Gruppe_50" data-name="Gruppe 50" transform="translate(-96 -128)">
    <path id="Pfad_1" data-name="Pfad 1" d="M361.328,128l-.921.7a13.47,13.47,0,0,1-.007,15.937l.921.7A14.67,14.67,0,0,0,361.328,128Z" transform="translate(-246.499 0)" fill="#c9cad3"/>
    <path id="Pfad_2" data-name="Pfad 2" d="M307.321,173.172a10.792,10.792,0,0,0,0-12.972l-.921.684a9.661,9.661,0,0,1,0,11.6Z" transform="translate(-196.155 -30.02)" fill="#c9cad3"/>
    <path id="Pfad_3" data-name="Pfad 3" d="M260.514,200.753a7.053,7.053,0,0,0,0-8.653l-.914.663a5.982,5.982,0,0,1,0,7.326Z" transform="translate(-152.524 -59.76)" fill="#c9cad3"/>
    <path id="Pfad_4" data-name="Pfad 4" d="M99.92,163.791H96v5.416h3.92L104.666,173V160Z" transform="translate(0 -29.833)" fill="#c9cad3"/>
  </g>
</svg>
